#Comment line ignore any data following # character 
#Hierarchical Translation and Rotation (.htr) file 
[Header]	
#Header keywords are followed by a single value 
FileType HTR		#Single word string
DataType HTRS		#Translation followed by rotation and scale data
FileVersion 1		#integer
NumSegments 64		#integer
NumFrames 3		#integer
DataFrameRate 30		#integer, data frame rate in this file
EulerRotationOrder ZYX
CalibrationUnits mm
RotationUnits Degrees
GlobalAxisofGravity Y
BoneLengthAxis Y
ScaleFactor 1.00
[SegmentNames&Hierarchy]
#CHILD	PARENT
Pinger_Root GLOBAL
Pelvis Pinger_Root
L_Hip Pelvis
R_Hip Pelvis
Rear_Leg01 Pelvis
Spine1 Pelvis
L_Leg01 L_Hip
L_Leg02 L_Leg01
L_Leg03 L_Leg02
L_Foot L_Leg03
L_Toe1_01 L_Foot
L_Toe2_01 L_Foot
L_Toe3_01 L_Foot
planeAlignerLeft L_Foot
L_Toe1_02 L_Toe1_01
L_Toe1_03 L_Toe1_02
L_Toe2_02 L_Toe2_01
L_Toe2_03 L_Toe2_02
L_Toe3_02 L_Toe3_01
L_Toe3_03 L_Toe3_02
planeLockWeightLeft planeAlignerLeft
R_Leg01 R_Hip
R_Leg02 R_Leg01
R_Leg03 R_Leg02
R_Foot R_Leg03
planeAlignerRight R_Foot
R_Toe1_01 R_Foot
R_Toe2_01 R_Foot
R_Toe3_01 R_Foot
planeLockWeightRight planeAlignerRight
R_Toe1_02 R_Toe1_01
R_Toe1_03 R_Toe1_02
R_Toe2_02 R_Toe2_01
R_Toe2_03 R_Toe2_02
R_Toe3_02 R_Toe3_01
R_Toe3_03 R_Toe3_02
Rear_Leg02 Rear_Leg01
Rear_Leg03 Rear_Leg02
Rear_Leg04 Rear_Leg03
Rear_Foot Rear_Leg04
planeAlignerCenter Rear_Foot
Rear_Toe1_01 Rear_Foot
Rear_Toe2_01 Rear_Foot
Rear_Toe3_01 Rear_Foot
planeLockWeightCenter planeAlignerCenter
Rear_Toe1_02 Rear_Toe1_01
Rear_Toe1_03 Rear_Toe1_02
Rear_Toe2_02 Rear_Toe2_01
Rear_Toe2_03 Rear_Toe2_02
Rear_Toe3_02 Rear_Toe3_01
Rear_Toe3_03 Rear_Toe3_02
Back_Bone Spine1
Head Spine1
Motor_Bone Back_Bone
Ping_Mechanism Back_Bone
BN_LookIK Head
bottomMouth Head
L_Mouth01 Head
L_mouthFront Head
mouthGun Head
R_Mouth01 Head
R_mouthFront Head
TopMouth Head
weapon_bone Head
[BasePosition]
#SegmentName Tx, Ty, Tz, Rx, Ry, Rz, BoneLength
Pinger_Root 0.000000 0.000000 0.000000 -90.000000 0.000000 0.000000 10.000000 
Pelvis 0.000000 0.000000 0.000000 0.000000 0.000000 0.000000 10.000000 
L_Hip 0.000000 0.000000 0.000000 0.000000 0.000000 0.000000 10.000000 
R_Hip 0.000000 0.000000 0.000000 0.000000 0.000000 0.000000 10.000000 
Rear_Leg01 0.000000 0.000000 0.000000 0.000000 0.000000 0.000000 10.000000 
Spine1 0.000000 0.000000 0.000000 0.000000 0.000000 0.000000 10.000000 
L_Leg01 0.000000 0.000000 0.000000 0.000000 0.000000 0.000000 10.000000 
L_Leg02 0.000000 0.000000 0.000000 0.000000 0.000000 0.000000 10.000000 
L_Leg03 0.000000 0.000000 0.000000 0.000000 0.000000 0.000000 10.000000 
L_Foot 0.000000 0.000000 0.000000 0.000000 0.000000 0.000000 10.000000 
L_Toe1_01 0.000000 0.000000 0.000000 0.000000 0.000000 0.000000 10.000000 
L_Toe2_01 0.000000 0.000000 0.000000 0.000000 0.000000 0.000000 10.000000 
L_Toe3_01 0.000000 0.000000 0.000000 0.000000 0.000000 0.000000 10.000000 
planeAlignerLeft 0.000000 0.000000 0.000000 0.000000 0.000000 0.000000 10.000000 
L_Toe1_02 0.000000 0.000000 0.000000 0.000000 0.000000 0.000000 10.000000 
L_Toe1_03 0.000000 0.000000 0.000000 0.000000 0.000000 0.000000 10.000000 
L_Toe2_02 0.000000 0.000000 0.000000 0.000000 0.000000 0.000000 10.000000 
L_Toe2_03 0.000000 0.000000 0.000000 0.000000 0.000000 0.000000 10.000000 
L_Toe3_02 0.000000 0.000000 0.000000 0.000000 0.000000 0.000000 10.000000 
L_Toe3_03 0.000000 0.000000 0.000000 0.000000 0.000000 0.000000 10.000000 
planeLockWeightLeft 0.000000 0.000000 0.000000 0.000000 0.000000 0.000000 10.000000 
R_Leg01 0.000000 0.000000 0.000000 0.000000 0.000000 0.000000 10.000000 
R_Leg02 0.000000 0.000000 0.000000 0.000000 0.000000 0.000000 10.000000 
R_Leg03 0.000000 0.000000 0.000000 0.000000 0.000000 0.000000 10.000000 
R_Foot 0.000000 0.000000 0.000000 0.000000 0.000000 0.000000 10.000000 
planeAlignerRight 0.000000 0.000000 0.000000 0.000000 0.000000 0.000000 10.000000 
R_Toe1_01 0.000000 0.000000 0.000000 0.000000 0.000000 0.000000 10.000000 
R_Toe2_01 0.000000 0.000000 0.000000 0.000000 0.000000 0.000000 10.000000 
R_Toe3_01 0.000000 0.000000 0.000000 0.000000 0.000000 0.000000 10.000000 
planeLockWeightRight 0.000000 0.000000 0.000000 0.000000 0.000000 0.000000 10.000000 
R_Toe1_02 0.000000 0.000000 0.000000 0.000000 0.000000 0.000000 10.000000 
R_Toe1_03 0.000000 0.000000 0.000000 0.000000 0.000000 0.000000 10.000000 
R_Toe2_02 0.000000 0.000000 0.000000 0.000000 0.000000 0.000000 10.000000 
R_Toe2_03 0.000000 0.000000 0.000000 0.000000 0.000000 0.000000 10.000000 
R_Toe3_02 0.000000 0.000000 0.000000 0.000000 0.000000 0.000000 10.000000 
R_Toe3_03 0.000000 0.000000 0.000000 0.000000 0.000000 0.000000 10.000000 
Rear_Leg02 0.000000 0.000000 0.000000 0.000000 0.000000 0.000000 10.000000 
Rear_Leg03 0.000000 0.000000 0.000000 0.000000 0.000000 0.000000 10.000000 
Rear_Leg04 0.000000 0.000000 0.000000 0.000000 0.000000 0.000000 10.000000 
Rear_Foot 0.000000 0.000000 0.000000 0.000000 0.000000 0.000000 10.000000 
planeAlignerCenter 0.000000 0.000000 0.000000 0.000000 0.000000 0.000000 10.000000 
Rear_Toe1_01 0.000000 0.000000 0.000000 0.000000 0.000000 0.000000 10.000000 
Rear_Toe2_01 0.000000 0.000000 0.000000 0.000000 0.000000 0.000000 10.000000 
Rear_Toe3_01 0.000000 0.000000 0.000000 0.000000 0.000000 0.000000 10.000000 
planeLockWeightCenter 0.000000 0.000000 0.000000 0.000000 0.000000 0.000000 10.000000 
Rear_Toe1_02 0.000000 0.000000 0.000000 0.000000 0.000000 0.000000 10.000000 
Rear_Toe1_03 0.000000 0.000000 0.000000 0.000000 0.000000 0.000000 10.000000 
Rear_Toe2_02 0.000000 0.000000 0.000000 0.000000 0.000000 0.000000 10.000000 
Rear_Toe2_03 0.000000 0.000000 0.000000 0.000000 0.000000 0.000000 10.000000 
Rear_Toe3_02 0.000000 0.000000 0.000000 0.000000 0.000000 0.000000 10.000000 
Rear_Toe3_03 0.000000 0.000000 0.000000 0.000000 0.000000 0.000000 10.000000 
Back_Bone 0.000000 0.000000 0.000000 0.000000 0.000000 0.000000 10.000000 
Head 0.000000 0.000000 0.000000 0.000000 0.000000 0.000000 10.000000 
Motor_Bone 0.000000 0.000000 0.000000 0.000000 0.000000 0.000000 10.000000 
Ping_Mechanism 0.000000 0.000000 0.000000 0.000000 0.000000 0.000000 10.000000 
BN_LookIK 0.000000 0.000000 0.000000 0.000000 0.000000 0.000000 10.000000 
bottomMouth 0.000000 0.000000 0.000000 0.000000 0.000000 0.000000 10.000000 
L_Mouth01 0.000000 0.000000 0.000000 0.000000 0.000000 0.000000 10.000000 
L_mouthFront 0.000000 0.000000 0.000000 0.000000 0.000000 0.000000 10.000000 
mouthGun 0.000000 0.000000 0.000000 0.000000 0.000000 0.000000 10.000000 
R_Mouth01 0.000000 0.000000 0.000000 0.000000 0.000000 0.000000 10.000000 
R_mouthFront 0.000000 0.000000 0.000000 0.000000 0.000000 0.000000 10.000000 
TopMouth 0.000000 0.000000 0.000000 0.000000 0.000000 0.000000 10.000000 
weapon_bone 0.000000 0.000000 0.000000 0.000000 0.000000 0.000000 10.000000 
#Beginning of Data. Separated by tabs
#Fr	Tx	Ty	Tz	Rx	Ry	Rz	SF
[Pinger_Root]
95 0.000000 0.000000 0.000000 -0.000075 -0.000000 -0.000020 0.000000
96 0.000000 0.000000 0.000000 -0.000075 -0.000000 -0.000020 0.000000
97 0.000000 0.000000 0.000000 -0.000075 -0.000000 -0.000020 0.000000
[Pelvis]
95 -450.777679 1139.349365 3122.605469 -7.095029 -79.792076 -5.207947 3354.397705
96 -460.387604 1140.104736 3132.606934 -7.863163 -79.971458 -4.501608 3365.267090
97 -471.938416 1140.806641 3144.658691 -8.645260 -80.221512 -3.801929 3378.319824
[L_Hip]
95 5.766392 125.831482 872.656799 -170.511902 -57.290417 91.282204 881.701050
96 5.766392 125.831482 872.656799 -170.511429 -57.291000 91.281357 881.701050
97 5.766392 125.831482 872.656799 -170.510941 -57.291580 91.280487 881.701050
[R_Hip]
95 5.765438 125.836372 -872.654907 -20.304974 57.272968 56.250488 881.699829
96 5.765438 125.836372 -872.654907 -20.305544 57.273487 56.250217 881.699829
97 5.765438 125.836372 -872.654907 -20.306099 57.274002 56.249947 881.699829
[Rear_Leg01]
95 -192.298416 -925.602966 -0.001907 -165.211746 19.159395 -98.834160 945.367432
96 -192.298416 -925.602966 -0.001907 -165.331863 19.267178 -99.092026 945.367432
97 -192.298416 -925.602966 -0.001907 -165.478882 19.468243 -99.456818 945.367432
[Spine1]
95 290.604584 5.007505 0.000477 10.003742 -13.916625 16.095917 290.647736
96 290.604584 5.007505 0.000477 9.947254 -13.985216 16.174917 290.647736
97 290.604584 5.007505 0.000477 9.890655 -14.053734 16.254009 290.647736
[L_Leg01]
95 761.932007 -0.002384 -0.069261 25.655771 24.897867 -105.824646 761.932068
96 761.932007 -0.002384 -0.069261 25.764137 24.865145 -105.736481 761.932068
97 761.932007 -0.002384 -0.069261 25.872425 24.832272 -105.648407 761.932068
[L_Leg02]
95 1441.140503 -0.000954 -0.000715 21.327610 12.124803 -71.672791 1441.140503
96 1441.140503 -0.000954 -0.000715 21.308533 12.081065 -71.582222 1441.140503
97 1441.140503 -0.000954 -0.000715 21.289385 12.037353 -71.491638 1441.140503
[L_Leg03]
95 1686.963989 -0.000715 -0.000954 -0.147355 0.096818 149.791153 1686.963989
96 1686.963989 -0.000715 -0.000954 -0.147399 0.096750 149.738632 1686.963989
97 1686.963989 -0.000715 -0.000954 -0.147444 0.096683 149.686127 1686.963989
[L_Foot]
95 3041.570068 -30.715107 11.297464 8.015283 21.310839 54.010227 3041.746094
96 3041.570068 -30.715107 11.297464 8.315565 21.520208 54.173695 3041.746094
97 3041.570068 -30.715107 11.297464 8.616926 21.728775 54.338581 3041.746094
[L_Toe1_01]
95 -188.216690 -224.732346 -21.137953 94.536530 -11.874325 -178.539001 293.899567
96 -188.216690 -224.732346 -21.137953 94.536530 -11.874326 -178.539001 293.899567
97 -188.216690 -224.732346 -21.137953 94.536530 -11.874324 -178.539001 293.899567
[L_Toe2_01]
95 200.746536 -219.926590 148.838394 -89.354958 -33.861389 -48.469398 332.896027
96 200.746536 -219.926590 148.838394 -89.354591 -33.861336 -48.470238 332.896027
97 200.746536 -219.926590 148.838394 -89.354233 -33.861275 -48.471058 332.896027
[L_Toe3_01]
95 188.832520 -219.859131 -191.078659 -97.078224 10.785587 -57.879002 347.140900
96 188.832520 -219.859131 -191.078659 -97.078232 10.785587 -57.879009 347.140900
97 188.832520 -219.859131 -191.078659 -97.078224 10.785587 -57.879002 347.140900
[planeAlignerLeft]
95 0.812531 -811.448792 -0.314951 0.000000 -90.000000 -90.001900 811.449280
96 0.812531 -811.448792 -0.314951 0.000000 -90.000000 -90.001900 811.449280
97 0.812531 -811.448792 -0.314951 0.000000 -90.000000 -90.001900 811.449280
[L_Toe1_02]
95 413.761139 0.000477 0.000000 0.000203 -25.410625 -0.000182 413.761139
96 413.761139 0.000477 0.000000 0.000203 -25.410625 -0.000182 413.761139
97 413.761139 0.000477 0.000000 0.000203 -25.410625 -0.000182 413.761139
[L_Toe1_03]
95 464.317322 0.000358 -0.000089 0.004342 58.635971 0.004342 464.317322
96 464.317322 0.000358 -0.000089 0.004342 58.635971 0.004342 464.317322
97 464.317322 0.000358 -0.000089 0.004342 58.635971 0.004342 464.317322
[L_Toe2_02]
95 342.235809 -0.000477 0.000238 0.001191 -70.156403 0.001191 342.235809
96 342.235809 -0.000477 0.000238 0.001191 -70.156425 0.001191 342.235809
97 342.235809 -0.000477 0.000238 0.001191 -70.156403 0.001191 342.235809
[L_Toe2_03]
95 420.210846 -0.000715 0.000000 0.013353 79.915703 0.013353 420.210846
96 420.210846 -0.000715 0.000000 0.013353 79.915710 0.013353 420.210846
97 420.210846 -0.000715 0.000000 0.013353 79.915703 0.013353 420.210846
[L_Toe3_02]
95 329.270111 0.000954 0.000000 0.001176 -83.128990 0.001176 329.270111
96 329.270111 0.000954 0.000000 0.001176 -83.128502 0.001176 329.270111
97 329.270111 0.000954 0.000000 0.001176 -83.127991 0.001176 329.270111
[L_Toe3_03]
95 439.137451 -0.001907 0.000954 179.990875 65.540871 179.998047 439.137451
96 439.137451 -0.001907 0.000954 179.990875 65.540901 179.998047 439.137451
97 439.137451 -0.001907 0.000954 179.990875 65.540901 179.998047 439.137451
[planeLockWeightLeft]
95 -0.000954 0.000238 -0.000305 -0.011826 -0.004376 0.005620 0.001029
96 -0.000954 0.000238 -0.000305 -0.011826 -0.004376 0.005620 0.001029
97 -0.000954 0.000238 -0.000305 -0.011826 -0.004376 0.005620 0.001029
[R_Leg01]
95 761.455627 -0.001907 -0.000358 86.213097 7.707316 103.447281 761.455688
96 761.455627 -0.001907 -0.000358 85.887283 7.940094 103.592453 761.455688
97 761.455627 -0.001907 -0.000358 85.647125 8.361535 103.737724 761.455688
[R_Leg02]
95 1441.140625 0.000000 -0.000238 19.560102 28.557867 -135.079361 1441.140625
96 1441.140625 0.000000 -0.000238 20.791227 27.836103 -131.976852 1441.140625
97 1441.140625 0.000000 -0.000238 22.046978 26.966553 -128.510757 1441.140625
[R_Leg03]
95 1686.963989 0.000954 0.001431 0.205291 -0.155702 165.911774 1686.963989
96 1686.963989 0.000954 0.001431 0.199308 -0.152002 164.661682 1686.963989
97 1686.963989 0.000954 0.001431 0.193245 -0.148433 163.411560 1686.963989
[R_Foot]
95 3041.560059 -30.531288 -11.204481 28.680391 -31.318090 41.697426 3041.734131
96 3041.560059 -30.531288 -11.204481 28.751406 -31.391092 40.228386 3041.734131
97 3041.560059 -30.531288 -11.204481 28.824625 -31.462496 38.758095 3041.734131
[planeAlignerRight]
95 -0.635147 -812.270569 -0.364304 0.000000 -89.960434 -90.005180 812.270874
96 -0.635147 -812.270569 -0.364304 0.000000 -89.960434 -90.005180 812.270874
97 -0.635147 -812.270569 -0.364304 0.000000 -89.960434 -90.005180 812.270874
[R_Toe1_01]
95 -188.383347 -224.864899 21.052242 90.575348 8.462499 175.364456 294.101532
96 -188.383347 -224.864899 21.052242 90.575348 8.462499 175.364456 294.101532
97 -188.383347 -224.864899 21.052242 90.575340 8.462498 175.364456 294.101532
[R_Toe2_01]
95 200.637817 -220.002121 -148.787384 -82.263153 10.458835 -29.563442 332.857574
96 200.637817 -220.002121 -148.787384 -82.263214 10.458850 -29.563423 332.857574
97 200.637817 -220.002121 -148.787384 -82.263260 10.458862 -29.563391 332.857574
[R_Toe3_01]
95 188.606735 -220.092957 191.126343 -69.666183 -41.492702 -42.965424 347.192566
96 188.606735 -220.092957 191.126343 -69.666183 -41.492737 -42.965401 347.192566
97 188.606735 -220.092957 191.126343 -69.666176 -41.492771 -42.965382 347.192566
[planeLockWeightRight]
95 -0.000477 0.000000 0.000000 -0.011823 -0.004379 -0.000027 0.000477
96 -0.000477 0.000000 0.000000 -0.011823 -0.004379 -0.000027 0.000477
97 -0.000477 0.000000 0.000000 -0.011823 -0.004379 -0.000027 0.000477
[R_Toe1_02]
95 413.762085 0.000477 -0.000119 0.001409 -22.812233 0.001409 413.762085
96 413.762085 0.000477 -0.000119 0.001409 -22.811445 0.001409 413.762085
97 413.762085 0.000477 -0.000119 0.001409 -22.810673 0.001409 413.762085
[R_Toe1_03]
95 464.317810 0.000000 0.001088 0.012350 79.093742 0.012350 464.317810
96 464.317810 0.000000 0.001088 0.012350 79.093674 0.012350 464.317810
97 464.317810 0.000000 0.001088 0.012350 79.093636 0.012350 464.317810
[R_Toe2_02]
95 342.234741 -0.000954 0.000238 0.001192 -69.583290 0.001192 342.234741
96 342.234741 -0.000954 0.000238 0.001192 -69.583321 0.001192 342.234741
97 342.234741 -0.000954 0.000238 0.001192 -69.583321 0.001192 342.234741
[R_Toe2_03]
95 420.210846 0.000715 -0.000268 0.011861 78.642632 0.011861 420.210846
96 420.210846 0.000715 -0.000268 0.011861 78.642715 0.011861 420.210846
97 420.210846 0.000715 -0.000268 0.011861 78.642769 0.011861 420.210846
[R_Toe3_02]
95 329.270355 -0.000477 -0.000954 0.001179 -79.434776 0.001179 329.270355
96 329.270355 -0.000477 -0.000954 0.001179 -79.434776 0.001179 329.270355
97 329.270355 -0.000477 -0.000954 0.001179 -79.434776 0.001179 329.270355
[R_Toe3_03]
95 439.137939 0.000238 0.001431 -179.993027 82.444130 -179.989532 439.137939
96 439.137939 0.000238 0.001431 -179.993027 82.444069 -179.989532 439.137939
97 439.137939 0.000238 0.001431 -179.993027 82.444046 -179.989532 439.137939
[Rear_Leg02]
95 1162.777710 -0.029802 0.005960 -22.327993 16.373352 -105.377678 1162.777710
96 1162.777710 -0.029802 0.005960 -21.961853 16.348932 -104.942635 1162.777710
97 1162.777710 -0.029802 0.005960 -21.534332 16.403997 -104.293312 1162.777710
[Rear_Leg03]
95 607.192505 -0.013351 -0.073195 0.010088 -0.005865 76.701180 607.192505
96 607.192505 -0.013351 -0.073195 0.010095 -0.005851 76.547173 607.192505
97 607.192505 -0.013351 -0.073195 0.010103 -0.005838 76.393166 607.192505
[Rear_Leg04]
95 995.874512 -0.020504 -0.011921 -0.042898 -0.018013 88.603386 995.874573
96 995.874512 -0.020504 -0.011921 -0.042852 -0.018122 88.310455 995.874573
97 995.874512 -0.020504 -0.011921 -0.042778 -0.018298 87.839928 995.874573
[Rear_Foot]
95 3096.176270 -0.067472 -0.041425 50.146290 59.586845 -127.697899 3096.176270
96 3096.176270 -0.067472 -0.041425 49.900417 59.798546 -128.076202 3096.176270
97 3096.176270 -0.067472 -0.041425 49.650154 60.009415 -128.458710 3096.176270
[planeAlignerCenter]
95 0.350077 0.966311 -838.790894 0.000009 0.000003 -179.999985 838.791565
96 0.350077 0.966311 -838.790894 0.000009 0.000003 -179.999985 838.791565
97 0.350077 0.966311 -838.790894 0.000009 0.000003 -179.999985 838.791565
[Rear_Toe1_01]
95 0.653352 83.966492 -371.173737 5.372868 30.402849 103.609955 380.553192
96 0.653352 83.966492 -371.173737 5.372791 30.402224 103.609978 380.553192
97 0.653352 83.966492 -371.173737 5.372715 30.401592 103.610001 380.553192
[Rear_Toe2_01]
95 178.200760 -294.826019 -362.060547 -8.738191 22.895378 -73.395554 499.765686
96 178.200760 -294.826019 -362.060547 -8.738163 22.894789 -73.395531 499.765686
97 178.200760 -294.826019 -362.060547 -8.738130 22.894196 -73.395515 499.765686
[Rear_Toe3_01]
95 -153.359680 -308.780914 -362.060852 3.793367 19.443233 -119.570099 499.952881
96 -153.359680 -308.780914 -362.060852 3.793588 19.442661 -119.570061 499.952881
97 -153.359680 -308.780914 -362.060852 3.793808 19.442091 -119.570045 499.952881
[planeLockWeightCenter]
95 -0.000062 0.000238 0.000000 -0.011814 -0.004373 -0.000015 0.000246
96 -0.000062 0.000238 0.000000 -0.011814 -0.004373 -0.000015 0.000246
97 -0.000062 0.000238 0.000000 -0.011814 -0.004373 -0.000015 0.000246
[Rear_Toe1_02]
95 379.707825 0.194073 0.000477 -0.000342 -33.041271 0.006991 379.707855
96 379.707825 0.194073 0.000477 -0.000342 -33.042099 0.006991 379.707855
97 379.707825 0.194073 0.000477 -0.000342 -33.042919 0.006991 379.707855
[Rear_Toe1_03]
95 500.129700 0.165701 0.000119 -0.004075 60.630211 -0.000460 500.129761
96 500.129700 0.165701 0.000119 -0.004075 60.630878 -0.000460 500.129761
97 500.129700 0.165701 0.000119 -0.004075 60.631550 -0.000460 500.129761
[Rear_Toe2_02]
95 340.494507 0.000238 -0.000954 0.001179 -79.173271 0.001179 340.494507
96 340.494507 0.000238 -0.000954 0.001179 -79.174164 0.001179 340.494507
97 340.494507 0.000238 -0.000954 0.001179 -79.174980 0.001179 340.494507
[Rear_Toe2_03]
95 433.103577 0.000000 0.000238 0.032223 85.825478 0.032223 433.103546
96 433.103577 0.000000 0.000238 0.032229 85.826126 0.032229 433.103546
97 433.103577 0.000000 0.000238 0.032235 85.826973 0.032235 433.103546
[Rear_Toe3_02]
95 340.494141 -0.000358 -0.000477 -0.002471 -50.174278 -0.002471 340.494171
96 340.494141 -0.000358 -0.000477 -0.002471 -50.175083 -0.002471 340.494171
97 340.494141 -0.000358 -0.000477 -0.002471 -50.175919 -0.002471 340.494171
[Rear_Toe3_03]
95 433.103577 0.001431 -0.000238 0.000409 44.527584 -0.003383 433.103546
96 433.103577 0.001431 -0.000238 0.000409 44.528496 -0.003383 433.103546
97 433.103577 0.001431 -0.000238 0.000409 44.529411 -0.003383 433.103546
[Back_Bone]
95 1312.175781 -701.934692 0.000954 1.030677 0.000161 -85.604660 1488.125488
96 1312.175781 -701.934692 0.000954 1.000930 0.000171 -85.604721 1488.125488
97 1312.175781 -701.934692 0.000954 0.971183 0.000181 -85.604790 1488.125488
[Head]
95 1406.159424 809.709290 0.001431 4.726488 14.157702 40.842102 1622.625488
96 1406.159424 809.709290 0.001431 4.724521 14.156582 40.842739 1622.625488
97 1406.159424 809.709290 0.001431 4.722556 14.155460 40.843391 1622.625488
[Motor_Bone]
95 1158.364380 -417.834747 0.000477 -0.020015 2.330484 -106.491562 1231.419434
96 1158.364380 -417.834747 0.000477 -0.022566 2.250493 -106.483337 1231.419434
97 1158.364380 -417.834747 0.000477 -0.025128 2.170503 -106.475113 1231.419434
[Ping_Mechanism]
95 1209.180542 -424.296570 54.072041 0.000103 -0.000053 82.120995 1282.602417
96 1209.211304 -424.289551 54.068207 0.000103 -0.000053 82.120995 1282.629028
97 1209.242065 -424.282532 54.064369 0.000103 -0.000053 82.120995 1282.655518
[BN_LookIK]
95 193.241119 1380.371704 -0.002861 0.000000 89.965736 -31.038179 1393.832153
96 193.241119 1380.371704 -0.002861 0.000000 89.965736 -31.038179 1393.832153
97 193.241119 1380.371704 -0.002861 0.000000 89.965736 -31.038179 1393.832153
[bottomMouth]
95 -435.092926 615.759399 -0.000954 -0.000022 0.000016 73.527184 753.966492
96 -435.092926 615.759399 -0.000954 -0.000022 0.000016 73.527184 753.966492
97 -435.092926 615.759399 -0.000954 -0.000022 0.000016 73.527184 753.966492
[L_Mouth01]
95 554.440979 7.658243 838.222046 150.204178 23.759130 109.605339 1005.027161
96 554.440979 7.658243 838.222046 150.204178 23.759130 109.605339 1005.027161
97 554.440979 7.658243 838.222046 150.204178 23.759130 109.605339 1005.027161
[L_mouthFront]
95 551.629089 934.514771 339.150421 0.000081 2.804060 79.119301 1136.941284
96 551.629089 934.514771 339.150421 0.000081 2.804060 79.119301 1136.941284
97 551.629089 934.514771 339.150421 0.000081 2.804060 79.119301 1136.941284
[mouthGun]
95 55.332661 1627.420898 0.000000 0.000023 0.000009 -11.038128 1628.361328
96 55.332661 1627.420898 0.000000 0.000023 0.000009 -11.038128 1628.361328
97 55.332661 1627.420898 0.000000 0.000023 0.000009 -11.038128 1628.361328
[R_Mouth01]
95 554.442383 7.659197 -838.223938 29.795891 -23.759109 109.605331 1005.029541
96 554.442383 7.659197 -838.223938 29.795891 -23.759109 109.605331 1005.029541
97 554.442383 7.659197 -838.223938 29.795891 -23.759109 109.605331 1005.029541
[R_mouthFront]
95 551.629089 934.514282 -339.151367 0.000029 -2.803930 79.119133 1136.941162
96 551.629089 934.514282 -339.151367 0.000029 -2.803930 79.119133 1136.941162
97 551.629089 934.514282 -339.151367 0.000029 -2.803930 79.119133 1136.941162
[TopMouth]
95 461.269867 -56.106091 -0.008583 -0.000059 -0.000268 92.025169 464.669525
96 461.269867 -56.106091 -0.008583 -0.000059 -0.000268 92.025169 464.669525
97 461.269867 -56.106091 -0.008583 -0.000059 -0.000268 92.025169 464.669525
[weapon_bone]
95 -987.239868 1448.372803 0.001431 0.000000 89.965736 -31.038221 1752.833740
96 -987.239868 1448.372803 0.001431 0.000000 89.965736 -31.038221 1752.833740
97 -987.239868 1448.372803 0.001431 0.000000 89.965736 -31.038221 1752.833740
